<svg width="154" height="119" viewBox="0 0 154 119" fill="none" xmlns="http://www.w3.org/2000/svg">
<path d="M64.4439 68.8997L63.2748 73.7611L67.2513 74.7174L68.977 71.0094L64.4439 68.8997ZM96.0847 42.8225L97.0851 47.7214L102.439 46.6282L100.876 41.3924L96.0847 42.8225ZM13.8104 81.6512L9.66229 84.4429L13.1311 89.5972L17.4244 85.1065L13.8104 81.6512ZM7.6021 114L3.06214 116.095L4.40267 119H7.6021V114ZM144.201 114V119H147.415L148.749 116.076L144.201 114ZM97.0721 42.6335L92.2779 44.0531L93.5478 48.3419L97.951 47.5557L97.0721 42.6335ZM13.1114 82.4028L16.8198 85.7566L19.4566 82.8409L17.2455 79.5906L13.1114 82.4028ZM65.6129 64.0383C60.8978 62.9044 55.8985 62.2973 50.7297 62.2973V72.2973C55.1169 72.2973 59.3312 72.8128 63.2748 73.7611L65.6129 64.0383ZM95.0844 37.9236C79.542 41.0973 66.7388 52.1186 59.9108 66.79L68.977 71.0094C74.6291 58.8648 85.0064 50.1878 97.0851 47.7214L95.0844 37.9236ZM52 15C70.5544 15 86.2423 27.3289 91.2936 44.2525L100.876 41.3924C94.5949 20.3492 75.0965 5 52 5V15ZM11 56C11 33.3563 29.3563 15 52 15V5C23.8335 5 1 27.8335 1 56H11ZM17.9584 78.8596C13.5643 72.3305 11 64.4723 11 56H1C1 66.5229 4.1924 76.3154 9.66229 84.4429L17.9584 78.8596ZM50.7297 62.2973C34.3959 62.2973 19.5849 68.3758 10.1963 78.196L17.4244 85.1065C24.6759 77.5216 36.7409 72.2973 50.7297 72.2973V62.2973ZM7.6021 119H144.201V109H7.6021V119ZM148.749 116.076C152.116 108.703 154 100.391 154 91.6216H144C144 98.9545 142.425 105.85 139.653 111.924L148.749 116.076ZM154 91.6216C154 61.9528 132.196 37 104.243 37V47C125.727 47 144 66.4799 144 91.6216H154ZM104.243 37C101.506 37 98.8163 37.243 96.1933 37.7114L97.951 47.5557C99.9977 47.1902 102.099 47 104.243 47V37ZM101.866 41.2139C95.4967 19.7025 75.5886 4 52 4V14C71.039 14 87.1313 26.6722 92.2779 44.0531L101.866 41.2139ZM52 4C23.2812 4 0 27.2812 0 56H10C10 32.804 28.804 14 52 14V4ZM0 56C0 66.8224 3.3116 76.8864 8.97726 85.2151L17.2455 79.5906C12.6725 72.868 10 64.7537 10 56H0ZM9.40295 79.0491C3.58321 85.4844 0 93.5079 0 102.324H10C10 96.3389 12.4102 90.6326 16.8198 85.7566L9.40295 79.0491ZM0 102.324C0 107.18 1.09019 111.822 3.06214 116.095L12.1421 111.905C10.7437 108.875 10 105.657 10 102.324H0Z" fill="#FDFDFD"/>
</svg>
