<svg width="149" height="144" viewBox="0 0 149 144" fill="none" xmlns="http://www.w3.org/2000/svg">
<mask id="path-1-outside-1" maskUnits="userSpaceOnUse" x="0" y="21.5" width="149" height="85" fill="black">
<rect fill="white" y="21.5" width="149" height="85"/>
<path fill-rule="evenodd" clip-rule="evenodd" d="M12.331 96.5H134.701C137.451 90.4299 139 83.5658 139 76.2973C139 51.5564 121.049 31.5 98.9054 31.5C83.3783 31.5 69.9126 41.3614 63.2518 55.7845C59.3734 54.8446 55.2465 54.3379 50.9662 54.3379C28.3412 54.3379 10 68.4953 10 85.9595C10 89.6554 10.8214 93.2031 12.331 96.5Z"/>
</mask>
<path d="M12.331 96.5L3.2389 100.663L5.91152 106.5H12.331V96.5ZM134.701 96.5V106.5H141.149L143.81 100.626L134.701 96.5ZM63.2518 55.7845L60.8965 65.5031L68.8845 67.439L72.3305 59.9771L63.2518 55.7845ZM12.331 106.5H134.701V86.5H12.331V106.5ZM143.81 100.626C147.146 93.2615 149 84.9907 149 76.2973H129C129 82.1408 127.755 87.5983 125.592 92.3736L143.81 100.626ZM149 76.2973C149 47.1054 127.586 21.5 98.9054 21.5V41.5C114.512 41.5 129 56.0074 129 76.2973H149ZM98.9054 21.5C78.8893 21.5 62.2066 34.1965 54.1732 51.5918L72.3305 59.9771C77.6186 48.5264 87.8672 41.5 98.9054 41.5V21.5ZM65.6071 46.0658C60.952 44.9376 56.0342 44.3379 50.9662 44.3379V64.3379C54.4587 64.3379 57.7948 64.7515 60.8965 65.5031L65.6071 46.0658ZM50.9662 44.3379C25.3803 44.3379 0 60.7192 0 85.9595H20C20 76.2714 31.3021 64.3379 50.9662 64.3379V44.3379ZM0 85.9595C0 91.1655 1.16235 96.1283 3.2389 100.663L21.4232 92.3367C20.4805 90.278 20 88.1452 20 85.9595H0Z" fill="#FDFDFD" mask="url(#path-1-outside-1)"/>
</svg>
