<svg width="154" height="144" viewBox="0 0 154 144" fill="none" xmlns="http://www.w3.org/2000/svg">
<path fill-rule="evenodd" clip-rule="evenodd" d="M48.2143 104H140.749C142.828 99.4744 144 94.3567 144 88.9376C144 70.4918 130.426 55.5384 113.681 55.5384C101.939 55.5384 91.7567 62.8908 86.7199 73.6441C83.7871 72.9433 80.6665 72.5656 77.4299 72.5656C60.3211 72.5656 46.4517 83.1209 46.4517 96.1415C46.4517 98.8969 47.0728 101.542 48.2143 104Z" fill="#FDFDFD"/>
<path d="M48.2143 104L39.1447 108.212L41.8327 114H48.2143V104ZM140.749 104V114H147.159L149.836 108.175L140.749 104ZM86.7199 73.6441L84.396 83.3703L92.32 85.2636L95.7757 77.8858L86.7199 73.6441ZM48.2143 114H140.749V94H48.2143V114ZM149.836 108.175C152.515 102.345 154 95.8033 154 88.9376H134C134 92.9101 133.142 96.604 131.662 99.8249L149.836 108.175ZM154 88.9376C154 65.9013 136.837 45.5384 113.681 45.5384V65.5384C124.014 65.5384 134 75.0822 134 88.9376H154ZM113.681 45.5384C97.5292 45.5384 84.1094 55.6419 77.6641 69.4023L95.7757 77.8858C99.404 70.1396 106.349 65.5384 113.681 65.5384V45.5384ZM89.0438 63.9178C85.3437 63.0338 81.4429 62.5656 77.4299 62.5656V82.5656C79.89 82.5656 82.2305 82.8529 84.396 83.3703L89.0438 63.9178ZM77.4299 62.5656C66.8865 62.5656 56.9676 65.8063 49.4689 71.5132C41.9623 77.226 36.4517 85.8406 36.4517 96.1415H56.4517C56.4517 93.4217 57.8758 90.2483 61.5811 87.4284C65.2943 84.6025 70.8644 82.5656 77.4299 82.5656V62.5656ZM36.4517 96.1415C36.4517 100.43 37.424 104.507 39.1447 108.212L57.284 99.7879C56.7216 98.577 56.4517 97.364 56.4517 96.1415H36.4517Z" fill="#FDFDFD"/>
<path fill-rule="evenodd" clip-rule="evenodd" d="M3.09512 87.3881L5.45363 92.4665H11.053H34.9069C34.896 92.1543 34.8905 91.8407 34.8905 91.5261C34.8905 88.7855 35.2989 86.1657 36.0453 83.6923H11.053C9.91145 81.2343 9.29031 78.5893 9.29031 75.8338C9.29031 62.8132 23.1597 52.2579 40.2685 52.2579C43.5051 52.2579 46.6258 52.6356 49.5585 53.3364C54.5953 42.5831 64.7779 35.2308 76.5194 35.2308C84.7167 35.2308 92.1542 38.8144 97.6113 44.637C100.601 43.4732 103.773 42.6877 107.086 42.3447C100.052 32.7782 89.1917 26.4566 76.5194 26.4566C63.3134 26.4566 51.9593 33.4456 44.9771 43.706C43.43 43.559 41.8586 43.4837 40.2685 43.4837C29.969 43.4837 20.3166 46.6506 13.0499 52.181C5.77627 57.7165 0.516113 65.9976 0.516113 75.8338C0.516113 79.9343 1.44541 83.8359 3.09512 87.3881ZM111.995 50.9447C111.63 50.9303 111.263 50.923 110.894 50.923C108.117 50.923 105.428 51.3342 102.873 52.1042C105.397 56.9773 106.839 62.6181 106.839 68.63C106.839 74.0491 105.667 79.1667 103.588 83.6923H45.4159C44.2817 86.1433 43.6647 88.7799 43.6647 91.5261C43.6647 91.841 43.6728 92.1546 43.6889 92.4665H103.588H109.212L111.56 87.3556C114.166 81.6852 115.613 75.3183 115.613 68.63C115.613 62.4017 114.328 56.3865 111.995 50.9447Z" fill="#FDFDFD"/>
</svg>
