<svg width="145" height="147" viewBox="0 0 145 147" fill="none" xmlns="http://www.w3.org/2000/svg">
<path d="M64.9546 73.7377L63.9208 78.0367L67.4372 78.8823L68.9632 75.6033L64.9546 73.7377ZM92.9347 50.6777L93.8193 55.0098L98.5534 54.0431L97.1715 49.4131L92.9347 50.6777ZM20.1797 85.0139L16.5115 87.4826L19.579 92.0405L23.3756 88.0694L20.1797 85.0139ZM14.6897 113.62L10.675 115.472L11.8605 118.041H14.6897V113.62ZM135.484 113.62V118.041H138.326L139.506 115.456L135.484 113.62ZM93.8078 50.5106L89.5683 51.766L90.6912 55.5585L94.585 54.8633L93.8078 50.5106ZM19.5616 85.6786L22.8409 88.6442L25.1726 86.0659L23.2174 83.1917L19.5616 85.6786ZM65.9884 69.4388C61.8188 68.4361 57.398 67.8993 52.8274 67.8993V76.7422C56.7069 76.7422 60.4335 77.198 63.9208 78.0367L65.9884 69.4388ZM92.0501 46.3456C78.3059 49.1521 66.984 58.8982 60.946 71.8721L68.9632 75.6033C73.9614 64.8638 83.138 57.1908 93.8193 55.0098L92.0501 46.3456ZM53.9507 26.0744C70.3583 26.0744 84.231 36.9768 88.6979 51.9423L97.1715 49.4131C91.6172 30.8047 74.3748 17.2314 53.9507 17.2314V26.0744ZM17.6945 62.3306C17.6945 42.3068 33.9269 26.0744 53.9507 26.0744V17.2314C29.0431 17.2314 8.85148 37.423 8.85148 62.3306H17.6945ZM23.8478 82.5452C19.9621 76.7716 17.6945 69.8226 17.6945 62.3306H8.85148C8.85148 71.636 11.6745 80.2954 16.5115 87.4826L23.8478 82.5452ZM52.8274 67.8993C38.3834 67.8993 25.2861 73.2744 16.9837 81.9585L23.3756 88.0694C29.788 81.3621 40.4571 76.7422 52.8274 76.7422V67.8993ZM14.6897 118.041H135.484V109.198H14.6897V118.041ZM139.506 115.456C142.483 108.935 144.149 101.586 144.149 93.8307H135.306C135.306 100.315 133.913 106.413 131.461 111.784L139.506 115.456ZM144.149 93.8307C144.149 67.5946 124.868 45.5289 100.149 45.5289V54.3719C119.148 54.3719 135.306 71.598 135.306 93.8307H144.149ZM100.149 45.5289C97.7283 45.5289 95.3501 45.7438 93.0307 46.158L94.585 54.8633C96.3948 54.5401 98.2529 54.3719 100.149 54.3719V45.5289ZM98.0473 49.2553C92.4147 30.2327 74.81 16.3471 53.9507 16.3471V25.1901C70.7868 25.1901 85.0172 36.3961 89.5683 51.766L98.0473 49.2553ZM53.9507 16.3471C28.5547 16.3471 7.96718 36.9346 7.96718 62.3306H16.8102C16.8102 41.8185 33.4385 25.1901 53.9507 25.1901V16.3471ZM7.96718 62.3306C7.96718 71.9008 10.8956 80.8004 15.9057 88.1654L23.2174 83.1917C19.1734 77.2469 16.8102 70.0714 16.8102 62.3306H7.96718ZM16.2822 82.7129C11.1358 88.4036 7.96718 95.4987 7.96718 103.295H16.8102C16.8102 98.0021 18.9415 92.9561 22.8409 88.6442L16.2822 82.7129ZM7.96718 103.295C7.96718 107.588 8.93124 111.693 10.675 115.472L18.7044 111.767C17.4678 109.088 16.8102 106.242 16.8102 103.295H7.96718Z" fill="#FDFDFD"/>
<path d="M96.6111 124L86.6667 144M116.5 124L106.556 144M36.9444 124L27 144M56.8333 124L46.8889 144M76.7222 124L66.7778 144" stroke="#FDFDFD" stroke-width="6" stroke-linecap="round" stroke-linejoin="round"/>
</svg>
