<svg width="146" height="144" viewBox="0 0 146 144" fill="none" xmlns="http://www.w3.org/2000/svg">
<path fill-rule="evenodd" clip-rule="evenodd" d="M45.5358 88.1419H132.93C134.893 83.8401 136 78.9756 136 73.8246C136 56.2911 123.18 42.0774 107.365 42.0774C96.2761 42.0774 86.6592 49.066 81.9022 59.2875C79.1323 58.6214 76.1851 58.2623 73.1283 58.2623C56.97 58.2623 43.8711 68.2955 43.8711 80.6721C43.8711 83.2913 44.4577 85.8055 45.5358 88.1419Z" fill="#FDFDFD"/>
<path d="M45.5358 88.1419L36.4559 92.3318L39.137 98.1419H45.5358V88.1419ZM132.93 88.1419V98.1419H139.357L142.026 92.2948L132.93 88.1419ZM81.9022 59.2875L79.5641 69.0103L87.5171 70.9228L90.9684 63.5068L81.9022 59.2875ZM45.5358 98.1419H132.93V78.1419H45.5358V98.1419ZM142.026 92.2948C144.584 86.6928 146 80.4123 146 73.8246H126C126 77.5389 125.203 80.9875 123.833 83.989L142.026 92.2948ZM146 73.8246C146 51.7639 129.648 32.0774 107.365 32.0774V52.0774C116.711 52.0774 126 60.8183 126 73.8246H146ZM107.365 32.0774C91.8302 32.0774 78.9851 41.8551 72.8359 55.0681L90.9684 63.5068C94.3332 56.2769 100.722 52.0774 107.365 52.0774V32.0774ZM84.2403 49.5646C80.6989 48.713 76.9666 48.2623 73.1283 48.2623V68.2623C75.4035 68.2623 77.5658 68.5297 79.5641 69.0103L84.2403 49.5646ZM73.1283 48.2623C63.0448 48.2623 53.5474 51.3816 46.3596 56.8872C39.1621 62.4002 33.8711 70.7206 33.8711 80.6721H53.8711C53.8711 78.247 55.1296 75.3625 58.5211 72.7648C61.9223 70.1596 67.0535 68.2623 73.1283 68.2623V48.2623ZM33.8711 80.6721C33.8711 84.8138 34.8042 88.7523 36.4559 92.3318L54.6158 83.9521C54.1112 82.8587 53.8711 81.7687 53.8711 80.6721H33.8711Z" fill="#FDFDFD"/>
<path fill-rule="evenodd" clip-rule="evenodd" d="M2.47204 72.515L4.82444 77.6129H10.4389H32.4983C32.476 77.1728 32.4647 76.7301 32.4647 76.285C32.4647 73.6819 32.8442 71.1919 33.5387 68.8387H10.4389C9.36083 66.5023 8.7742 63.9881 8.7742 61.3689C8.7742 48.9923 21.8731 38.9591 38.0314 38.9591C41.0882 38.9591 44.0354 39.3182 46.8053 39.9843C51.5623 29.7628 61.1792 22.7742 72.2683 22.7742C79.8476 22.7742 86.739 26.0389 91.8611 31.3692C94.8535 30.1826 98.0415 29.3939 101.378 29.0753C94.6565 20.0019 84.3417 14 72.2683 14C59.6905 14 48.9015 20.6433 42.223 30.3704C40.8439 30.2476 39.4453 30.1849 38.0314 30.1849C28.1936 30.1849 18.9638 33.2294 12.008 38.5571C5.04382 43.8914 0 51.8787 0 61.3689C0 65.324 0.890651 69.0879 2.47204 72.515ZM106.302 37.7371C105.782 37.706 105.259 37.6903 104.733 37.6903C102.111 37.6903 99.5707 38.0811 97.1579 38.8131C99.5413 43.4451 100.903 48.8069 100.903 54.5214C100.903 59.6724 99.7965 64.5369 97.8327 68.8387H42.8928C41.8216 71.1685 41.2389 73.6746 41.2389 76.285C41.2389 76.7308 41.2559 77.1735 41.2895 77.6129H97.8327H103.472L105.814 72.4826C108.299 67.0399 109.677 60.933 109.677 54.5214C109.677 48.626 108.481 42.9178 106.302 37.7371Z" fill="#FDFDFD"/>
<path fill-rule="evenodd" clip-rule="evenodd" d="M88.0432 87C87.626 87 87.2527 87.259 87.1065 87.6497L75.0643 119.85C74.8198 120.503 75.3031 121.2 76.0009 121.2H86.7118L81.7887 144H83.2146L103.036 114.349C103.471 113.698 103.024 112.822 102.241 112.794L91.4418 112.404L104.091 88.4672C104.443 87.8013 103.96 87 103.207 87H88.0432Z" fill="#FDFDFD"/>
</svg>
