<svg width="164" height="146" viewBox="0 0 164 146" fill="none" xmlns="http://www.w3.org/2000/svg">
<path fill-rule="evenodd" clip-rule="evenodd" d="M12.6021 101H149.201C152.27 94.2762 154 86.6728 154 78.6216C154 51.2164 133.961 29 109.243 29C91.9102 29 76.8788 39.9234 69.4435 55.8997C65.1142 54.8586 60.5075 54.2974 55.7297 54.2974C30.4739 54.2974 10 69.9795 10 89.3244C10 93.4183 10.9169 97.3481 12.6021 101Z" fill="#FDFDFD"/>
<path d="M12.6021 101L3.52213 105.19L6.20317 111H12.6021V101ZM149.201 101V111H155.628L158.297 105.153L149.201 101ZM69.4435 55.8997L67.1054 65.6225L75.0584 67.535L78.5097 60.1191L69.4435 55.8997ZM12.6021 111H149.201V91H12.6021V111ZM158.297 105.153C161.961 97.1289 164 88.1096 164 78.6216H144C144 85.2361 142.58 91.4235 140.104 96.8471L158.297 105.153ZM164 78.6216C164 46.6892 140.43 19 109.243 19V39C127.493 39 144 55.7435 144 78.6216H164ZM109.243 19C87.4644 19 69.2048 32.7125 60.3772 51.6803L78.5097 60.1191C84.5528 47.1343 96.3561 39 109.243 39V19ZM71.7816 46.1769C66.6807 44.9503 61.2891 44.2974 55.7297 44.2974V64.2974C59.726 64.2974 63.5477 64.767 67.1054 65.6225L71.7816 46.1769ZM55.7297 44.2974C41.0975 44.2974 27.4819 48.829 17.3132 56.6178C7.13473 64.4141 0 75.8888 0 89.3244H20C20 83.4152 23.1022 77.3764 29.4747 72.4954C35.8569 67.6069 45.1061 64.2974 55.7297 64.2974V44.2974ZM0 89.3244C0 94.9408 1.26342 100.295 3.52213 105.19L21.682 96.8101C20.5704 94.4013 20 91.8958 20 89.3244H0Z" fill="#FDFDFD"/>
<circle cx="36" cy="142" r="4" fill="#FDFDFD"/>
<circle cx="61" cy="142" r="4" fill="#FDFDFD"/>
<circle cx="86" cy="142" r="4" fill="#FDFDFD"/>
<circle cx="111" cy="142" r="4" fill="#FDFDFD"/>
<circle cx="136" cy="142" r="4" fill="#FDFDFD"/>
<circle cx="36" cy="117" r="4" fill="#FDFDFD"/>
<circle cx="36" cy="117" r="4" fill="#FDFDFD"/>
<circle cx="61" cy="117" r="4" fill="#FDFDFD"/>
<circle cx="86" cy="117" r="4" fill="#FDFDFD"/>
<circle cx="111" cy="117" r="4" fill="#FDFDFD"/>
<circle cx="136" cy="117" r="4" fill="#FDFDFD"/>
<circle cx="24" cy="129" r="4" fill="#FDFDFD"/>
<circle cx="49" cy="129" r="4" fill="#FDFDFD"/>
<circle cx="74" cy="129" r="4" fill="#FDFDFD"/>
<circle cx="99" cy="129" r="4" fill="#FDFDFD"/>
<circle cx="124" cy="129" r="4" fill="#FDFDFD"/>
</svg>
