<svg width="66" height="134" viewBox="0 0 66 134" fill="none" xmlns="http://www.w3.org/2000/svg">
<path fill-rule="evenodd" clip-rule="evenodd" d="M1.40541 18.1594C1.37815 18.2619 1.34302 18.4206 1.2995 18.6356V45.0093L1.03155 112.63C1.01162 112.897 1.00166 113.166 1.00009 113.434C0.999039 113.705 1.00743 113.975 1.02526 114.245L1.02263 114.926C1.50975 118.836 3.97 122.424 7.80508 125.332C13.6432 129.759 22.6683 132.613 32.773 132.637C49.3293 132.675 63.4359 125.104 65 115.403V45.0846L64.8862 18.3088C63.3598 8.60384 49.7373 1 33.1804 1C16.707 1 3.04505 8.52691 1.40541 18.1594Z" stroke="#FDFDFD" stroke-width="2" stroke-miterlimit="1.5" stroke-linecap="round" stroke-linejoin="round"/>
</svg>
