<svg width="22" height="22" viewBox="0 0 22 22" fill="none" xmlns="http://www.w3.org/2000/svg">
<g clip-path="url(#clip0)">
<path fill-rule="evenodd" clip-rule="evenodd" d="M14.0351 14.2051C14.157 14.0831 14.3018 13.9863 14.4611 13.9202C14.6204 13.8542 14.7912 13.8202 14.9637 13.8202C15.1362 13.8202 15.307 13.8542 15.4663 13.9202C15.6256 13.9863 15.7704 14.0831 15.8923 14.2051L20.9454 19.2583C21.1917 19.5044 21.3301 19.8382 21.3302 20.1864C21.3304 20.5346 21.1922 20.8685 20.9461 21.1148C20.7 21.3611 20.3661 21.4995 20.0179 21.4996C19.6698 21.4997 19.3358 21.3615 19.0895 21.1154L14.0364 16.0623C13.9144 15.9404 13.8176 15.7957 13.7515 15.6363C13.6855 15.477 13.6515 15.3062 13.6515 15.1337C13.6515 14.9612 13.6855 14.7904 13.7515 14.6311C13.8176 14.4718 13.9144 14.327 14.0364 14.2051H14.0351Z" fill="#6C757D"/>
<path fill-rule="evenodd" clip-rule="evenodd" d="M8.86124 16.25C9.80922 16.25 10.7479 16.0633 11.6237 15.7005C12.4996 15.3377 13.2953 14.806 13.9657 14.1357C14.636 13.4654 15.1677 12.6696 15.5305 11.7937C15.8933 10.9179 16.08 9.97923 16.08 9.03125C16.08 8.08327 15.8933 7.14457 15.5305 6.26875C15.1677 5.39294 14.636 4.59715 13.9657 3.92682C13.2953 3.2565 12.4996 2.72477 11.6237 2.36199C10.7479 1.99922 9.80922 1.8125 8.86124 1.8125C6.9467 1.8125 5.11059 2.57304 3.75681 3.92682C2.40303 5.2806 1.64249 7.11672 1.64249 9.03125C1.64249 10.9458 2.40303 12.7819 3.75681 14.1357C5.11059 15.4895 6.9467 16.25 8.86124 16.25ZM17.3925 9.03125C17.3925 11.2939 16.4937 13.4638 14.8937 15.0638C13.2938 16.6637 11.1239 17.5625 8.86124 17.5625C6.59861 17.5625 4.42865 16.6637 2.82873 15.0638C1.22881 13.4638 0.329987 11.2939 0.329987 9.03125C0.329987 6.76862 1.22881 4.59867 2.82873 2.99875C4.42865 1.39883 6.59861 0.5 8.86124 0.5C11.1239 0.5 13.2938 1.39883 14.8937 2.99875C16.4937 4.59867 17.3925 6.76862 17.3925 9.03125Z" fill="#6C757D"/>
</g>
<defs>
<clipPath id="clip0">
<rect width="21" height="21" fill="white" transform="translate(0.329987 0.5)"/>
</clipPath>
</defs>
</svg>
